# xmcd CD database file
#
# Track frame offsets:
#	150
#	16538
#	32406
#	49813
#	69546
#	80812
#	96788
#	108842
#	120729
#	139118
#
# Disc length: 2082 seconds
#
# Revision: 0
# Processed by: cddbd v1.5.2PL0 Copyright (c) Steve Scherf et al.
# Submitted via: CDex 1.51
#
DISCID=7908200a
DTITLE=Jolly and the Flytrap - Linger on Mazurka
DYEAR=2013
DGENRE=Country
TTITLE0=Dreamlife
TTITLE1=Gloria
TTITLE2=VCW
TTITLE3=Linger On
TTITLE4=Electric Polka
TTITLE5=Vico Masacote
TTITLE6=Heppa Mazurka
TTITLE7=Merry Go Round
TTITLE8=Canard Presse?
TTITLE9=Cielo Abierto
EXTD=YEAR: 2013
EXTT0=
EXTT1=
EXTT2=
EXTT3=
EXTT4=
EXTT5=
EXTT6=
EXTT7=
EXTT8=
EXTT9=
PLAYORDER=
